<svg xmlns="http://www.w3.org/2000/svg" width="190" height="27" viewBox="0 0 190 27">
  <path fill="#E8DAC8" d="M30.476717.166263158L20.291283.166263158 20.291283.169815789 3.1274717.169815789 3.1274717 6.71802632C3.1274717 13.7586316 8.88626415 19.4655789 15.9908302 19.4655789 21.2133208 19.4655789 25.6994717 16.3747895 27.7149057 11.9446579L30.4781509 11.9446579C33.7547547 11.9446579 36.4212075 9.30292105 36.4212075 6.05510526 36.4204906 2.80728947 33.7540377.166263158 30.476717.166263158zM30.476717 8.84534211L28.6613208 8.84534211C28.7789057 8.15186842 28.8556226 7.44489474 28.8556226 6.71802632L28.8556226 3.26557895 30.4781509 3.26557895C32.0304151 3.26557895 33.2937358 4.51681579 33.2937358 6.05510526 33.2937358 7.59339474 32.0289811 8.84534211 30.476717 8.84534211zM2.47573585 24.9202895C2.83566038 25.5050526 3.68743396 25.9789737 4.37860377 25.9789737L27.6030566 25.9789737C28.2942264 25.9789737 29.145283 25.5050526 29.5052075 24.9202895L31.9823774 20.8994211 0 20.8994211 2.47573585 24.9202895zM62.8531287 10.5541607L59.2825767 10.5541607 58.7889519 7.39079204C58.3172638 6.92335036 57.7221777 6.55375084 57.0036759 6.28198242 56.2851742 6.010214 55.4377936 5.87433183 54.4615087 5.87433183 52.3773051 5.87433183 50.7730408 6.62440142 49.6486678 8.12456312 48.5242948 9.62472481 47.9621167 11.5814281 47.9621167 13.9947317L47.9621167 14.8263389C47.9621167 17.2396425 48.5215525 19.2017811 49.6404407 20.7128135 50.759329 22.223846 52.3389123 22.9793508 54.3792379 22.9793508 55.3226143 22.9793508 56.1864489 22.8434687 56.9707676 22.5717002 57.7550863 22.2999318 58.3611417 21.9303323 58.7889519 21.4628906L59.2825767 18.299522 62.8531287 18.299522 62.8531287 22.9956569C61.8878133 24.104472 60.6565062 24.9877062 59.1591705 25.6453857 57.6618347 26.3030653 55.9862698 26.6319002 54.1324256 26.6319002 50.9183642 26.6319002 48.2857254 25.5285369 46.2344303 23.3217773 44.1831351 21.1150177 43.1575029 18.2832333 43.1575029 14.8263389L43.1575029 14.0273437C43.1575029 10.5813201 44.1776505 7.74953566 46.2179761 5.53190532 48.2583018 3.31427499 50.8964252 2.20547646 54.1324256 2.20547646 55.9862698 2.20547646 57.6590924 2.53974661 59.1509434 3.20829693 60.6427944 3.87684725 61.8768438 4.76008137 62.8531287 5.8580258L62.8531287 10.5541607zM63.4496526 17.3048545C63.4496526 14.6741362 64.1928246 12.5190449 65.6791908 10.8395161 67.1655571 9.15998723 69.2195638 8.3202354 71.8412726 8.3202354 74.4739508 8.3202354 76.5334422 9.15726959 78.0198085 10.8313631 79.5061747 12.5054566 80.2493467 14.6632655 80.2493467 17.3048545L80.2493467 17.647281C80.2493467 20.2997409 79.5061747 22.4602674 78.0198085 24.1289255 76.5334422 25.7975836 74.4849201 26.6319002 71.8741809 26.6319002 69.2305331 26.6319002 67.1655571 25.7975836 65.6791908 24.1289255 64.1928246 22.4602674 63.4496526 20.2997409 63.4496526 17.647281L63.4496526 17.3048545zM68.2542664 17.647281C68.2542664 19.2561501 68.5394689 20.5470308 69.1098825 21.5199617 69.6802961 22.4928927 70.6017197 22.9793508 71.8741809 22.9793508 73.1137336 22.9793508 74.0214455 22.490175 74.5973438 21.5118087 75.1732422 20.5334424 75.4611871 19.2452794 75.4611871 17.647281L75.4611871 17.3048545C75.4611871 15.7394684 75.1704999 14.462176 74.5891168 13.4729389 74.0077336 12.4837019 73.0917947 11.9890908 71.8412726 11.9890908 70.5907504 11.9890908 69.6802961 12.4837019 69.1098825 13.4729389 68.5394689 14.462176 68.2542664 15.7394684 68.2542664 17.3048545L68.2542664 17.647281zM80.8787789 23.4359195L83.198815 22.9467388 83.198815 11.9890908 80.5496958 11.9890908 80.5496958 8.64635588 83.198815 8.64635588 83.198815 6.68963302C83.198815 4.7111589 83.7747048 3.18656092 84.9265015 2.11579333 86.0782982 1.04502574 87.6962741.509649979 89.7804778.509649979 90.186349.509649979 90.6004411.539544058 91.0227666.599333111 91.4450921.659122164 91.9085462.743369111 92.4131429.85207648L92.0017889 4.39048366C91.7385211 4.34700071 91.4834842 4.3089537 91.2366706 4.27634149 90.9898571 4.24372928 90.7019122 4.22742342 90.3728274 4.22742342 89.5939934 4.22742342 89.004392 4.43939961 88.6040055 4.86335835 88.2036191 5.28731709 88.0034288 5.89606922 88.0034288 6.68963302L88.0034288 8.64635588 91.5410725 8.64635588 91.5410725 11.9890908 88.0034288 11.9890908 88.0034288 22.9467388 90.3234649 23.4359195 90.3234649 26.2894737 80.8787789 26.2894737 80.8787789 23.4359195zM91.6933342 23.4359195L94.0133703 22.9467388 94.0133703 11.9890908 91.3642511 11.9890908 91.3642511 8.64635588 94.0133703 8.64635588 94.0133703 6.68963302C94.0133703 4.7111589 94.58926 3.18656092 95.7410568 2.11579333 96.8928535 1.04502574 98.5108294.509649979 100.595033.509649979 101.000904.509649979 101.414996.539544058 101.837322.599333111 102.259647.659122164 102.723101.743369111 103.227698.85207648L102.816344 4.39048366C102.553076 4.34700071 102.29804 4.3089537 102.051226 4.27634149 101.804412 4.24372928 101.516467 4.22742342 101.187383 4.22742342 100.408549 4.22742342 99.8189473 4.43939961 99.4185608 4.86335835 99.0181743 5.28731709 98.8179841 5.89606922 98.8179841 6.68963302L98.8179841 8.64635588 102.355628 8.64635588 102.355628 11.9890908 98.8179841 11.9890908 98.8179841 22.9467388 101.13802 23.4359195 101.13802 26.2894737 91.6933342 26.2894737 91.6933342 23.4359195zM110.372976 26.6319002C107.806115 26.6319002 105.754851 25.8166071 104.219122 24.1859966 102.683393 22.5553861 101.91554 20.4845417 101.91554 17.9734015L101.91554 17.3211606C101.91554 14.701313 102.642258 12.5435041 104.095716 10.8476691 105.549173 9.15183414 107.498971 8.30936467 109.945168 8.32002964 112.347487 8.32002964 114.212273 9.03769328 115.539582 10.4726306 116.86689 11.9075678 117.530535 13.8479653 117.530535 16.2938811L117.530535 18.8865389 106.901149 18.8865389 106.868241 18.984375C106.955997 20.1475439 107.34815 21.1041543 108.044713 21.8542352 108.741276 22.604316 109.687381 22.9793508 110.883055 22.9793508 111.947096 22.9793508 112.830127 22.8733627 113.532175 22.6613834 114.234222 22.449404 115.002075 22.1151339 115.835757 21.6585629L117.135635 24.5936472C116.400679 25.1697963 115.44909 25.6535368 114.280839 26.0448833 113.112588 26.4362299 111.80998 26.6319002 110.372976 26.6319002zM109.945168 11.9890908C109.056639 11.9890908 108.354602 12.3260786 107.839036 13.0000642 107.32347 13.6740499 107.00536 14.5600017 106.884695 15.6579461L106.934058 15.7394763 112.824646 15.7394763 112.824646 15.3155196C112.824646 14.3045411 112.586063 13.497401 112.10889 12.8940751 111.631717 12.2907492 110.910484 11.9890908 109.945168 11.9890908zM126.600949 26.6319002C124.034088 26.6319002 121.982824 25.8166071 120.447095 24.1859966 118.911366 22.5553861 118.143513 20.4845417 118.143513 17.9734015L118.143513 17.3211606C118.143513 14.701313 118.870231 12.5435041 120.323688 10.8476691 121.777146 9.15183414 123.726944 8.30936467 126.173141 8.32002964 128.57546 8.32002964 130.440246 9.03769328 131.767555 10.4726306 133.094863 11.9075678 133.758508 13.8479653 133.758508 16.2938811L133.758508 18.8865389 123.129122 18.8865389 123.096214 18.984375C123.18397 20.1475439 123.576123 21.1041543 124.272686 21.8542352 124.969249 22.604316 125.915353 22.9793508 127.111028 22.9793508 128.175069 22.9793508 129.0581 22.8733627 129.760147 22.6613834 130.462195 22.449404 131.230048 22.1151339 132.063729 21.6585629L133.363608 24.5936472C132.628652 25.1697963 131.677063 25.6535368 130.508812 26.0448833 129.340561 26.4362299 128.037953 26.6319002 126.600949 26.6319002zM126.173141 11.9890908C125.284612 11.9890908 124.582575 12.3260786 124.067009 13.0000642 123.551443 13.6740499 123.233333 14.5600017 123.112668 15.6579461L123.162031 15.7394763 129.052619 15.7394763 129.052619 15.3155196C129.052619 14.3045411 128.814036 13.497401 128.336863 12.8940751 127.85969 12.2907492 127.138457 11.9890908 126.173141 11.9890908zM144.836329 2.54790296C147.655489 2.54790296 149.854839 3.09143165 151.434446 4.17850535 153.014053 5.26557904 153.803845 6.89072983 153.803845 9.05400648 153.803845 10.1519509 153.510415 11.1330202 152.923547 11.9972438 152.33668 12.8614674 151.483814 13.5109842 150.364926 13.9458136 151.80193 14.2501943 152.879666 14.9024287 153.598168 15.9025365 154.31667 16.9026443 154.675915 18.0603604 154.675915 19.3757196 154.675915 21.6477036 153.919031 23.3679719 152.405241 24.5365761 150.891452 25.7051803 148.746948 26.2894737 145.971666 26.2894737L134.19049 26.2894737 134.19049 23.4359195 136.740884 22.9467388 136.740884 5.90694387 134.19049 5.41776316 134.19049 2.54790296 144.836329 2.54790296zM141.545498 15.7883943L141.545498 22.6369243 145.971666 22.6369243C147.244127 22.6369243 148.214913 22.3624424 148.884052 21.8134701 149.553191 21.2644979 149.887756 20.4519225 149.887756 19.3757196 149.887756 18.2125507 149.602553 17.3238813 149.032139 16.7096847 148.461726 16.095488 147.562241 15.7883943 146.333658 15.7883943L141.545498 15.7883943zM141.545498 12.4945775L145.000871 12.4945775C146.284302 12.4945775 147.271541 12.2336837 147.962619 11.7118884 148.653697 11.190093 148.999231 10.4291528 148.999231 9.42904502 148.999231 8.3311006 148.650955 7.52124284 147.954392 6.99944747 147.257829 6.4776521 146.218485 6.21675833 144.836329 6.21675833L141.545498 6.21675833 141.545498 12.4945775zM154.861085 17.3048545C154.861085 14.6741362 155.604257 12.5190449 157.090623 10.8395161 158.57699 9.15998723 160.630996 8.3202354 163.252705 8.3202354 165.885383 8.3202354 167.944875 9.15726959 169.431241 10.8313631 170.917607 12.5054566 171.660779 14.6632655 171.660779 17.3048545L171.660779 17.647281C171.660779 20.2997409 170.917607 22.4602674 169.431241 24.1289255 167.944875 25.7975836 165.896353 26.6319002 163.285613 26.6319002 160.641966 26.6319002 158.57699 25.7975836 157.090623 24.1289255 155.604257 22.4602674 154.861085 20.2997409 154.861085 17.647281L154.861085 17.3048545zM159.665699 17.647281C159.665699 19.2561501 159.950901 20.5470308 160.521315 21.5199617 161.091729 22.4928927 162.013152 22.9793508 163.285613 22.9793508 164.525166 22.9793508 165.432878 22.490175 166.008776 21.5118087 166.584675 20.5334424 166.87262 19.2452794 166.87262 17.647281L166.87262 17.3048545C166.87262 15.7394684 166.581932 14.462176 166.000549 13.4729389 165.419166 12.4837019 164.503227 11.9890908 163.252705 11.9890908 162.002183 11.9890908 161.091729 12.4837019 160.521315 13.4729389 159.950901 14.462176 159.665699 15.7394684 159.665699 17.3048545L159.665699 17.647281zM171.171329 23.4359195L172.833199 23.1750231 177.670721 17.3700786 172.99774 11.7934185 171.33587 11.5162161 171.33587 8.64635588 179.349045 8.64635588 179.349045 11.4020739 177.720083 11.5977462 180.418565 14.9893992 183.067684 11.5977462 181.405814 11.4020739 181.405814 8.64635588 189.451897 8.64635588 189.451897 11.5162161 187.83939 11.7934185 183.265134 17.3700786 188.086202 23.1750231 189.764526 23.4359195 189.764526 26.2894737 181.619718 26.2894737 181.619718 23.5500617 183.24868 23.3543894 180.484382 19.7996762 177.670721 23.3706954 179.102232 23.5500617 179.102232 26.2894737 171.171329 26.2894737 171.171329 23.4359195z"/>
</svg>
